<?xml version="1.0" standalone="no"?>
<!DOCTYPE svg PUBLIC "-//W3C//DTD SVG 20010904//EN"
 "http://www.w3.org/TR/2001/REC-SVG-20010904/DTD/svg10.dtd">
<svg version="1.0" xmlns="http://www.w3.org/2000/svg"
 width="511.000000pt" height="408.000000pt" viewBox="0 0 511.000000 408.000000"
 preserveAspectRatio="xMidYMid meet">

<g transform="translate(0.000000,408.000000) scale(0.100000,-0.100000)"
fill="#000000" stroke="none">
<path d="M2374 3559 c-679 -61 -1237 -540 -1404 -1206 -26 -105 -26 -115 2
-104 15 5 26 24 38 67 70 255 210 486 419 695 232 231 489 369 823 441 87 18
135 22 308 22 207 1 227 -1 412 -45 l87 -21 -81 -77 c-81 -77 -82 -78 -122
-70 -23 5 -80 8 -127 9 -66 0 -86 -3 -86 -14 0 -10 28 -15 118 -21 l119 -7 40
-61 c22 -34 48 -81 58 -104 9 -24 23 -43 29 -43 16 0 5 28 -47 127 -22 40 -40
80 -40 87 0 14 85 92 148 135 l33 23 57 -23 c194 -77 367 -189 536 -348 l60
-56 -65 74 c-121 140 -311 283 -489 368 -181 87 -361 135 -570 153 -126 11
-125 11 -256 -1z"/>
<path d="M2580 3352 l-45 -3 7 -117 c3 -64 7 -145 7 -179 l1 -63 78 -1 c42 0
113 -6 157 -13 87 -15 95 -12 95 35 0 23 -23 42 -50 41 -3 0 -48 5 -100 11
l-95 12 -5 140 -5 140 -45 -3z"/>
<path d="M2140 3286 c-97 -29 -219 -81 -248 -106 -41 -34 -39 -76 8 -176 23
-49 51 -99 63 -111 28 -31 70 -29 159 6 40 16 105 38 143 50 118 35 127 52
104 204 -14 96 -27 135 -49 147 -30 16 -99 10 -180 -14z m116 -68 c11 -18 43
-161 38 -170 -3 -4 -35 -17 -72 -28 -37 -11 -93 -32 -126 -46 -70 -31 -71 -31
-114 73 -23 55 -28 74 -18 82 20 17 107 52 186 77 88 27 97 28 106 12z"/>
<path d="M3157 3219 c-29 -5 -54 -15 -63 -26 -11 -15 -55 -138 -56 -160 0 -5
-7 -30 -15 -57 -16 -53 -13 -58 33 -74 31 -10 32 -9 44 31 8 23 17 46 21 50 8
10 56 -14 187 -90 85 -50 104 -66 85 -75 -14 -6 -44 -68 -38 -78 3 -5 18 -18
34 -29 l28 -20 72 106 c54 80 71 114 71 140 0 67 -46 120 -162 188 -35 21 -65
40 -68 44 -3 3 -14 8 -25 9 -10 2 -28 10 -39 18 -11 8 -28 14 -37 14 -10 0
-19 4 -21 8 -1 4 -25 4 -51 1z m156 -138 c143 -75 174 -111 138 -160 l-17 -23
-31 26 c-17 14 -36 26 -42 26 -7 0 -14 6 -17 13 -3 8 -10 14 -17 14 -7 0 -35
14 -63 30 -28 17 -67 36 -86 43 -34 12 -35 15 -25 39 26 62 28 62 160 -8z"/>
<path d="M1600 2993 c-42 -18 -189 -169 -276 -283 l-65 -85 43 -35 c139 -116
222 -178 232 -174 6 3 28 29 48 57 21 29 83 100 138 160 74 79 100 114 100
133 0 38 -40 104 -67 110 -15 4 -23 14 -23 29 0 30 -28 83 -50 95 -24 13 -37
12 -80 -7z m38 -95 c7 -7 12 -15 12 -19 0 -11 -164 -173 -173 -171 -5 2 -6 -1
-4 -5 3 -5 -8 -23 -23 -41 -24 -29 -31 -32 -49 -22 -16 8 -19 15 -12 28 22 41
213 240 232 242 3 0 10 -5 17 -12z m85 -120 c9 -14 -2 -30 -65 -95 -41 -43
-89 -93 -105 -112 -27 -31 -31 -32 -51 -20 -12 8 -22 18 -22 24 1 25 198 227
218 223 8 -2 20 -11 25 -20z"/>
<path d="M2081 2821 c-11 -11 -25 -38 -32 -60 -11 -37 -25 -48 -166 -142 -85
-57 -157 -107 -160 -112 -3 -5 69 30 159 77 91 47 169 86 174 86 6 0 58 -31
118 -70 59 -38 109 -70 110 -70 2 0 -37 39 -86 88 l-89 87 3 68 c2 37 0 67 -4
67 -5 0 -17 -9 -27 -19z"/>
<path d="M3110 2805 c0 -28 25 -107 38 -117 13 -11 15 -11 10 2 -3 8 -13 39
-22 68 -15 44 -26 65 -26 47z"/>
<path d="M3900 2675 c-102 -19 -513 -90 -915 -160 -1200 -207 -1430 -247
-1434 -251 -13 -12 12 -14 46 -5 36 11 190 37 1013 170 994 161 1489 241 1499
241 6 0 11 9 11 20 0 25 7 25 -220 -15z"/>
<path d="M4325 2663 c-37 -6 -47 -14 -36 -32 7 -11 13 -11 32 3 13 9 36 16 51
16 16 0 28 5 28 10 0 10 -19 11 -75 3z"/>
<path d="M4031 2611 c-11 -7 -7 -10 15 -14 28 -4 28 -4 5 -12 -22 -8 -23 -11
-17 -69 17 -159 29 -235 36 -231 13 8 10 159 -3 167 -9 6 -9 8 1 8 8 0 12 23
12 80 0 70 -2 80 -17 80 -10 0 -24 -4 -32 -9z"/>
<path d="M4102 2183 c1 -272 4 -383 8 -293 3 80 7 136 10 125 2 -11 2 -29 1
-40 -1 -10 1 -26 5 -35 3 -8 7 -40 8 -70 3 -77 5 -80 70 -65 46 11 57 11 67
-1 16 -20 39 -17 40 4 0 13 2 12 9 -5 5 -13 14 -23 19 -23 15 0 69 83 64 98
-3 6 2 12 10 12 9 0 17 -6 20 -12 4 -10 8 -10 23 0 11 6 26 15 34 19 22 10 40
30 40 44 0 15 -58 4 -80 -16 -30 -27 -92 -16 -108 20 -13 28 -28 177 -39 370
l-7 140 -8 -90 c-10 -106 -3 -324 12 -391 9 -40 8 -49 -7 -66 -16 -18 -16 -19
8 -25 19 -6 12 -9 -36 -18 -33 -7 -69 -15 -80 -20 -14 -5 -16 -4 -6 3 11 8 10
15 -7 38 -13 19 -25 60 -33 119 -13 100 -18 335 -6 335 4 0 7 7 7 15 0 8 -5
15 -11 15 -7 0 -8 7 -4 18 13 28 22 122 12 122 -4 0 -8 10 -7 23 5 56 0 87
-15 87 -12 0 -14 -60 -13 -437z"/>
<path d="M3853 2583 c-7 -2 -13 -11 -13 -19 0 -8 -7 -14 -15 -14 -8 0 -15 7
-15 15 0 8 -7 15 -15 15 -13 0 -15 -28 -15 -204 1 -182 3 -204 17 -199 13 5
15 0 9 -29 -5 -30 -3 -36 13 -41 11 -2 29 2 41 10 11 8 33 13 48 11 20 -2 26
1 23 12 -11 40 -41 266 -47 353 -4 53 -10 97 -13 96 -3 0 -12 -3 -18 -6z m23
-218 c4 -22 7 -47 5 -55 -4 -20 -42 -60 -57 -60 -7 0 -15 -8 -17 -17 -7 -28
-8 85 -1 185 l7 92 28 -53 c15 -29 31 -70 35 -92z"/>
<path d="M2425 2485 c-677 -120 -779 -138 -1190 -210 -203 -36 -462 -81 -575
-101 -113 -20 -207 -38 -210 -41 -6 -7 -93 -21 1025 167 523 88 1064 179 1203
202 175 30 252 46 252 55 0 7 -8 13 -17 12 -10 -1 -229 -38 -488 -84z"/>
<path d="M3465 2441 c-129 -5 -154 -9 -178 -26 -17 -13 -26 -27 -23 -38 3 -14
0 -16 -14 -12 -23 7 -54 -44 -43 -71 4 -11 2 -15 -4 -11 -14 9 -25 -66 -22
-140 2 -48 0 -57 -22 -74 -13 -10 -31 -19 -41 -19 -9 0 -18 -6 -21 -12 -6 -19
-33 40 -47 102 -18 81 -2 150 54 245 17 29 17 29 -13 -4 -45 -51 -64 -119 -59
-205 7 -108 64 -200 148 -240 19 -9 26 -11 16 -4 -11 7 -38 29 -59 49 -34 30
-37 37 -22 42 13 5 16 3 12 -8 -7 -17 28 -45 55 -45 10 0 18 -5 18 -10 0 -13
40 -29 100 -40 40 -7 47 -6 76 20 18 15 30 31 26 35 -4 3 0 10 7 15 24 14 5
37 -36 43 -50 8 -122 60 -136 98 -6 16 -18 29 -27 29 -12 0 -13 2 -1 9 9 6 12
20 9 40 -2 17 -1 31 2 31 4 0 15 18 25 41 11 23 29 48 41 56 14 9 21 21 17 31
-4 13 -3 14 5 3 7 -10 14 -11 31 -2 11 7 21 15 21 19 0 4 10 8 23 8 12 1 55 4
95 6 39 3 72 2 72 -2 0 -3 15 -12 34 -18 32 -12 116 -93 116 -113 0 -5 11 -9
25 -9 14 0 25 5 25 10 0 6 -8 10 -17 10 -13 0 -14 3 -5 8 10 7 9 18 -2 56 -17
55 -32 77 -50 70 -8 -3 -16 4 -19 15 -3 13 -12 20 -24 19 -10 -1 -85 -4 -168
-7z m155 -25 c0 -11 -19 -15 -25 -6 -3 5 1 10 9 10 9 0 16 -2 16 -4z m-430
-398 c0 -16 -3 -19 -11 -11 -6 6 -8 16 -5 22 11 17 16 13 16 -11z m70 18 c0
-11 -19 -15 -25 -6 -3 5 1 10 9 10 9 0 16 -2 16 -4z m7 -71 c0 -8 -4 -15 -8
-15 -11 0 -20 16 -12 24 11 11 20 7 20 -9z m53 5 c0 -5 -7 -10 -15 -10 -8 0
-15 5 -15 10 0 6 7 10 15 10 8 0 15 -4 15 -10z"/>
<path d="M2392 2043 c-57 -185 -102 -337 -100 -338 2 -2 53 143 113 322 61
179 111 328 113 333 2 4 -3 10 -10 13 -10 3 -41 -83 -116 -330z"/>
<path d="M2681 2283 c-53 -13 -100 -32 -108 -41 -9 -13 -12 -13 -13 -3 0 11
-3 11 -15 1 -8 -6 -20 -38 -26 -71 -6 -32 -15 -59 -19 -59 -3 0 -6 -20 -6 -45
1 -25 -3 -45 -7 -45 -17 0 -48 -93 -41 -123 5 -25 3 -29 -9 -24 -12 4 -20 -4
-28 -28 -7 -19 -17 -31 -22 -28 -6 3 -7 1 -3 -5 4 -7 -4 -35 -18 -63 -20 -42
-22 -55 -13 -70 14 -23 26 -24 33 -4 4 9 19 15 35 15 24 0 29 4 29 26 0 28 27
161 40 197 14 36 42 148 42 165 0 12 3 22 7 22 11 0 35 52 32 71 -1 11 9 19
31 23 41 8 78 38 78 63 1 17 1 17 11 1 12 -22 49 -24 49 -3 0 8 5 15 11 15 7
0 9 -9 6 -22 -4 -14 0 -26 11 -34 27 -21 35 -16 28 19 -4 17 -8 40 -9 49 -2
10 -5 19 -8 22 -2 2 -46 -7 -98 -21z m-31 -39 c0 -11 -5 -14 -16 -10 -9 3 -18
6 -20 6 -3 0 -2 5 1 10 10 16 35 12 35 -6z m-190 -424 c0 -5 -7 -10 -15 -10
-8 0 -15 5 -15 10 0 6 7 10 15 10 8 0 15 -4 15 -10z m-60 -80 c0 -5 -2 -10 -4
-10 -3 0 -8 5 -11 10 -3 6 -1 10 4 10 6 0 11 -4 11 -10z"/>
<path d="M1660 2215 c0 -8 -7 -15 -15 -15 -8 0 -15 5 -15 10 0 6 -7 10 -15 10
-19 0 -19 -34 0 -53 7 -8 17 -26 20 -40 4 -16 16 -28 33 -32 l27 -7 -30 -13
c-16 -7 -24 -14 -17 -14 6 -1 12 -8 12 -16 0 -8 7 -15 15 -15 18 0 40 39 36
63 -2 16 0 17 19 5 16 -10 22 -10 28 -1 13 21 132 27 193 10 57 -17 133 -73
144 -107 5 -16 9 -18 26 -7 23 14 24 28 3 70 -25 50 -46 70 -56 55 -5 -9 -8
-7 -8 7 0 19 -60 67 -60 48 0 -4 -4 -3 -8 3 -14 22 -96 42 -157 38 -118 -8
-129 -7 -133 4 -5 17 -42 15 -42 -3z m240 -46 c0 -5 -7 -9 -15 -9 -15 0 -20
12 -9 23 8 8 24 -1 24 -14z m-120 1 c12 -8 11 -10 -7 -10 -13 0 -23 5 -23 10
0 13 11 13 30 0z m-57 -7 c-7 -2 -21 -2 -30 0 -10 3 -4 5 12 5 17 0 24 -2 18
-5z m-53 -13 c0 -5 -4 -10 -10 -10 -5 0 -10 5 -10 10 0 6 5 10 10 10 6 0 10
-4 10 -10z m347 -26 c-3 -3 -12 -4 -19 -1 -8 3 -5 6 6 6 11 1 17 -2 13 -5z"/>
<path d="M1450 1928 c0 -144 -3 -333 -5 -418 -3 -94 -1 -145 4 -129 5 14 12
197 17 405 4 208 8 383 9 388 0 5 -6 11 -12 14 -10 3 -13 -54 -13 -260z"/>
<path d="M2790 2157 c0 -52 12 -85 34 -92 18 -6 19 -8 4 -12 -19 -5 -24 -38
-8 -48 6 -3 10 -17 10 -30 0 -13 7 -30 15 -38 8 -8 12 -17 9 -20 -3 -2 13 -42
35 -88 21 -46 46 -101 54 -121 12 -29 19 -35 36 -31 24 6 29 -15 6 -23 -15 -6
-12 -42 5 -54 4 -3 10 -24 13 -47 6 -35 4 -43 -12 -48 -11 -3 -22 -12 -25 -20
-8 -22 5 -47 21 -41 8 3 25 6 38 6 14 0 25 7 28 20 3 13 10 18 21 14 21 -8 20
-4 -8 64 -13 31 -34 87 -47 125 -15 43 -28 66 -36 62 -7 -2 -13 0 -13 5 0 6 4
10 9 10 5 0 7 9 4 20 -3 11 -12 20 -20 20 -12 0 -13 3 -4 14 11 13 5 31 -58
181 -5 11 -19 45 -31 75 -31 81 -42 100 -62 111 -15 8 -18 6 -18 -14z m130
-287 c0 -5 -7 -10 -16 -10 -8 0 -12 5 -9 10 3 6 10 10 16 10 5 0 9 -4 9 -10z
m95 -400 c3 -5 -1 -10 -9 -10 -9 0 -16 5 -16 10 0 6 4 10 9 10 6 0 13 -4 16
-10z"/>
<path d="M1130 2075 c-6 -8 -9 -18 -6 -23 8 -13 55 -21 62 -11 7 12 44 11 44
-1 0 -5 -8 -10 -17 -10 -28 -1 27 -40 55 -40 13 0 22 -6 21 -12 -3 -31 14 -58
37 -58 22 0 23 -2 12 -20 -10 -15 -10 -22 -1 -31 7 -7 9 -24 6 -41 -4 -20 -1
-33 8 -40 11 -7 11 -11 1 -15 -7 -2 -17 -13 -22 -24 -9 -15 -8 -17 6 -12 24 9
76 95 64 107 -6 6 -4 14 7 21 18 13 10 37 -10 30 -16 -6 -79 68 -92 109 -8 23
-17 32 -37 34 -16 2 -28 9 -28 18 0 30 -88 46 -110 19z"/>
<path d="M3813 2083 c-15 -5 -18 -43 -4 -43 5 0 11 10 14 22 7 26 6 27 -10 21z"/>
<path d="M632 1683 c1 -375 2 -380 8 -163 15 461 15 543 2 548 -9 3 -12 -82
-10 -385z"/>
<path d="M735 2054 c-11 -3 -30 -7 -42 -10 -28 -6 -30 -34 -3 -41 26 -7 26
-23 -1 -23 -15 0 -20 -5 -17 -22 2 -16 9 -22 21 -20 23 4 22 -15 -1 -22 -15
-5 -19 -17 -19 -66 -1 -56 0 -59 26 -63 l26 -4 -27 -2 c-26 -1 -28 -4 -28 -43
-1 -24 -2 -67 -4 -95 -2 -29 1 -53 5 -53 5 0 9 -7 9 -15 0 -8 -5 -15 -12 -15
-9 0 -9 -3 0 -12 15 -15 16 -48 2 -48 -5 0 -10 -11 -10 -25 0 -28 8 -31 33
-12 11 8 17 31 20 74 2 34 6 66 10 69 11 11 8 44 -3 44 -5 0 -10 5 -10 10 0 6
8 10 18 10 14 0 17 11 19 73 4 124 3 148 -13 173 -15 22 -15 23 10 30 17 4 26
13 26 26 0 16 -5 19 -25 14 -19 -5 -23 -3 -19 9 4 9 14 13 28 10 22 -6 85 29
69 38 -14 8 -67 15 -88 11z m-15 -199 c0 -8 -7 -15 -15 -15 -13 0 -14 3 -3 15
16 18 18 18 18 0z"/>
<path d="M3556 1995 c-3 -8 -18 -20 -33 -26 -21 -8 -24 -12 -13 -19 8 -5 17
-7 21 -4 4 2 10 -3 13 -12 5 -14 8 -14 28 0 25 18 38 20 38 7 0 -5 -9 -11 -20
-14 -19 -5 -17 -9 17 -61 29 -45 39 -54 50 -44 10 8 17 8 25 0 7 -7 8 -13 3
-13 -6 -1 -17 -2 -25 -3 -11 -1 -15 -14 -15 -55 0 -47 3 -55 20 -56 11 -1 26
-4 34 -6 35 -9 10 224 -25 238 -9 3 -12 13 -9 24 5 15 -2 23 -37 39 -52 24
-64 25 -72 5z m116 -127 c-9 -9 -15 -9 -24 0 -9 9 -7 12 12 12 19 0 21 -3 12
-12z"/>
<path d="M2121 1971 c-8 -5 -12 -18 -8 -30 12 -46 -26 -136 -87 -206 -29 -34
-20 -59 14 -37 11 6 26 12 34 12 19 0 32 70 14 81 -10 7 -9 9 4 9 9 0 19 -6
22 -12 5 -10 7 -10 12 0 3 6 12 12 20 12 16 0 19 36 3 45 -7 5 -5 13 7 26 13
14 15 28 10 64 -7 44 -18 53 -45 36z"/>
<path d="M1680 1923 c0 -10 7 -27 16 -38 13 -17 16 -18 24 -5 13 21 13 23 -15
43 -24 17 -25 17 -25 0z"/>
<path d="M932 1913 c-12 -2 -27 -13 -32 -23 -9 -17 -7 -18 37 -13 27 3 57 6
68 8 11 2 34 4 50 5 l30 2 -35 8 c-67 15 -95 18 -118 13z"/>
<path d="M1150 1860 c13 -23 20 -26 20 -6 0 8 -7 16 -15 20 -13 4 -14 2 -5
-14z"/>
<path d="M907 1863 c-2 -5 -5 -35 -6 -68 -1 -33 -4 -79 -7 -102 -7 -47 7 -58
26 -22 9 15 18 19 35 15 13 -3 26 -3 28 2 3 4 42 7 86 7 45 0 81 0 81 0 0 0 9
25 20 55 24 64 12 86 -21 38 -12 -18 -23 -34 -23 -35 -3 -5 -190 -31 -197 -28
-4 3 -4 33 -2 69 4 39 1 66 -5 70 -6 3 -12 3 -15 -1z"/>
<path d="M3200 1815 c-65 -12 -78 -25 -46 -50 7 -5 11 -16 8 -23 -2 -7 6 -38
18 -68 16 -39 25 -52 32 -42 7 10 10 10 18 -4 11 -18 59 -36 105 -39 54 -2 56
-1 44 25 -14 30 11 73 48 82 37 10 18 18 -35 15 -55 -3 -76 13 -97 75 -7 21
-17 39 -21 40 -5 0 -38 -4 -74 -11z m80 -55 c0 -5 -4 -10 -10 -10 -5 0 -10 5
-10 10 0 6 5 10 10 10 6 0 10 -4 10 -10z m0 -65 c0 -8 -4 -15 -10 -15 -5 0
-10 7 -10 15 0 8 5 15 10 15 6 0 10 -7 10 -15z m70 -6 c0 -5 -9 -9 -20 -9 -11
0 -20 6 -20 14 0 9 7 12 20 9 11 -3 20 -9 20 -14z m-115 2 c7 -12 -12 -24 -25
-16 -11 7 -4 25 10 25 5 0 11 -4 15 -9z m60 -61 c-3 -5 -13 -10 -21 -10 -8 0
-14 5 -14 10 0 6 9 10 21 10 11 0 17 -4 14 -10z"/>
<path d="M3870 1750 c0 -68 -1 -71 -40 -112 -22 -24 -40 -47 -40 -52 0 -10
118 2 140 14 13 8 13 9 -1 10 -22 0 -29 29 -29 128 0 66 -3 82 -15 82 -12 0
-15 -14 -15 -70z m10 -119 c0 -14 -18 -23 -31 -15 -8 4 -7 9 2 15 18 11 29 11
29 0z"/>
<path d="M2757 1721 c-3 -12 1 -22 9 -25 16 -6 18 12 5 32 -6 11 -9 9 -14 -7z"/>
<path d="M1723 1723 c-34 -3 -43 -8 -43 -23 0 -13 5 -17 15 -14 8 3 51 7 97 7
66 2 83 5 83 17 0 16 -64 21 -152 13z"/>
<path d="M1310 1685 c-7 -8 -9 -23 -5 -36 6 -17 4 -21 -8 -16 -9 3 -21 -1 -28
-9 -8 -10 -26 -14 -51 -13 -25 2 -42 -2 -50 -13 -7 -9 -20 -18 -28 -21 -12 -4
-11 -6 3 -6 9 -1 17 -5 17 -9 0 -5 13 -7 29 -4 21 3 35 -3 54 -22 14 -14 30
-26 34 -26 8 0 23 -17 42 -49 6 -10 19 -12 45 -7 35 7 36 8 35 54 -1 26 -4 58
-8 72 -4 14 -4 35 0 47 7 18 2 27 -22 47 -35 30 -42 31 -59 11z m60 -39 c0 -3
-4 -8 -10 -11 -5 -3 -10 -1 -10 4 0 6 5 11 10 11 6 0 10 -2 10 -4z m-55 -76
c-3 -5 -13 -10 -21 -10 -8 0 -12 5 -9 10 3 6 13 10 21 10 8 0 12 -4 9 -10z"/>
<path d="M2326 1653 c-9 -22 10 -41 25 -26 13 13 5 43 -10 43 -5 0 -12 -8 -15
-17z"/>
<path d="M4085 1590 c-154 -27 -480 -83 -725 -124 -245 -42 -654 -112 -910
-155 -256 -44 -643 -109 -860 -146 -217 -37 -397 -69 -399 -71 -16 -15 25 -13
136 5 70 11 436 70 813 131 377 60 954 154 1283 207 328 53 600 94 602 91 3
-3 -4 -27 -15 -54 -192 -448 -539 -772 -989 -923 -156 -52 -270 -72 -456 -78
-259 -8 -454 27 -686 124 -143 60 -322 171 -430 266 -19 18 4 -7 52 -54 187
-186 460 -327 751 -391 89 -19 133 -22 318 -22 185 0 229 3 316 22 559 122
997 507 1183 1042 l30 85 158 26 c146 23 158 27 161 47 5 30 1 29 -333 -28z"/>
<path d="M1553 1488 c0 -48 4 -88 9 -88 15 0 8 -19 -13 -39 -21 -20 -18 -48 4
-34 7 4 26 8 42 8 26 0 30 3 26 25 -1 14 -8 28 -15 32 -8 6 -8 8 0 8 7 0 14
14 16 30 4 25 1 30 -16 31 -15 0 -17 2 -6 6 8 3 28 17 43 29 18 16 41 24 65
24 22 0 32 4 27 9 -14 13 -57 17 -74 7 -10 -7 -12 -4 -6 13 3 11 3 21 -2 22
-4 0 -29 1 -55 2 l-46 3 1 -88z m67 42 c0 -5 -9 -10 -20 -10 -11 0 -20 5 -20
10 0 6 9 10 20 10 11 0 20 -4 20 -10z"/>
<path d="M2457 1478 c-14 -35 -32 -76 -41 -93 -8 -16 -14 -30 -12 -32 1 -2 17
0 34 3 29 6 33 12 53 79 l22 74 76 14 76 14 -91 2 -92 1 -25 -62z"/>
<path d="M2220 1501 c0 -5 -5 -22 -10 -37 l-11 -27 -27 26 c-29 28 -42 33 -42
17 0 -21 -42 -119 -60 -140 -11 -13 -20 -27 -20 -32 0 -4 -8 -8 -17 -9 -11 0
-13 -2 -5 -6 7 -3 20 -1 30 3 9 4 31 9 47 10 17 2 41 5 55 7 14 2 30 5 37 6 7
0 14 16 17 34 10 58 16 157 11 157 -3 0 -5 -4 -5 -9z"/>
<path d="M661 1348 l1 -93 13 70 c7 39 14 79 16 90 3 12 -2 21 -13 23 -16 3
-18 -6 -17 -90z"/>
<path d="M1333 1424 c-3 -8 -3 -24 0 -35 9 -33 -63 -111 -125 -136 -33 -13
-37 -18 -26 -31 11 -13 9 -14 -24 -8 -34 6 -38 5 -38 -13 0 -14 -5 -19 -15
-15 -8 4 -13 10 -10 14 9 14 -15 22 -29 11 -7 -6 -33 -12 -57 -14 -29 -1 -49
-8 -58 -21 -13 -17 -15 -17 -23 -2 -6 10 -22 16 -44 16 -21 0 -33 4 -29 10 3
6 27 10 53 11 43 0 45 1 22 11 -14 7 -42 20 -63 29 -46 21 -52 13 -44 -57 5
-52 30 -85 48 -67 9 9 18 9 31 2 15 -8 22 -7 32 7 12 16 13 15 19 -5 3 -14 10
-19 21 -15 8 3 14 11 13 17 -1 6 6 13 15 15 13 2 16 -1 12 -12 -4 -9 -1 -16 6
-16 6 0 14 9 17 20 5 19 7 19 23 5 20 -18 51 -10 43 11 -6 17 10 18 35 3 28
-17 92 10 120 51 13 19 28 34 34 32 14 -4 48 28 48 44 0 7 -6 15 -12 17 -7 3
-3 6 8 6 16 1 25 12 37 44 31 84 31 84 -3 85 -19 0 -33 -5 -37 -14z m-103
-204 c-8 -5 -17 -7 -19 -4 -3 3 1 9 9 14 8 5 17 7 19 4 3 -3 -1 -9 -9 -14z"/>
<path d="M1936 1147 c-873 -155 -1584 -283 -1578 -285 7 -2 2078 342 3102 516
83 14 105 21 108 35 3 12 -3 17 -20 16 -13 0 -738 -127 -1612 -282z"/>
<path d="M3716 1411 c-16 -18 -17 -26 -7 -86 11 -60 10 -68 -8 -94 -26 -37
-127 -122 -135 -114 -3 3 -9 28 -12 55 -8 56 -12 61 -37 43 -16 -12 -17 -19
-6 -79 20 -116 38 -117 152 -8 50 49 67 60 67 46 0 -11 -33 -50 -75 -91 -70
-66 -90 -102 -66 -117 5 -3 45 30 89 74 101 100 106 119 80 270 -10 58 -20
109 -21 113 -1 5 -11 -1 -21 -12z"/>
<path d="M3066 1243 c-2 -10 -7 -38 -11 -63 -4 -25 -13 -70 -20 -100 -7 -30
-16 -68 -19 -85 l-6 -30 16 29 c9 16 25 70 35 120 11 50 22 103 25 119 7 30
-11 39 -20 10z"/>
<path d="M3380 1113 c-36 -24 -94 -60 -130 -80 -36 -20 -66 -37 -67 -37 -1 -1
1 -14 5 -29 l7 -27 56 30 56 29 18 -104 c17 -102 24 -115 53 -96 11 6 10 24
-3 97 -9 49 -19 98 -21 110 -4 16 6 29 50 59 56 38 61 46 48 76 -6 14 -17 10
-72 -28z"/>
<path d="M2254 1073 c3 -10 12 -49 20 -86 7 -37 17 -71 21 -75 5 -4 5 4 1 18
-3 14 -11 55 -17 93 -7 37 -16 67 -21 67 -5 0 -7 -8 -4 -17z"/>
<path d="M1606 1023 c-14 -14 -4 -72 17 -104 16 -25 48 -47 117 -81 52 -26
101 -52 108 -58 12 -11 17 -60 7 -60 -3 0 -54 23 -112 50 -58 28 -108 50 -109
50 -2 0 -4 -9 -4 -19 0 -26 43 -55 151 -102 134 -58 150 -53 129 44 -14 69
-32 86 -149 136 -87 38 -110 53 -111 74 0 4 15 1 33 -7 175 -77 197 -85 197
-70 0 23 -19 54 -33 54 -7 0 -52 19 -102 41 -122 55 -132 59 -139 52z"/>
<path d="M3090 954 c-19 -9 -79 -31 -133 -49 -54 -18 -101 -36 -104 -39 -3 -3
5 -64 17 -135 19 -109 26 -131 40 -131 22 0 157 44 222 72 42 18 48 24 48 50
0 20 -4 28 -12 25 -101 -41 -201 -77 -218 -77 -13 0 -20 7 -20 19 0 11 -3 26
-6 34 -4 11 9 20 48 32 29 10 74 27 101 38 40 17 47 23 41 41 -4 11 -7 22 -9
23 -1 2 -38 -11 -84 -27 -92 -34 -111 -36 -111 -15 0 8 17 19 43 26 23 6 75
24 115 41 66 27 72 32 72 59 0 33 -2 34 -50 13z"/>
<path d="M1993 872 c-27 -4 -29 -29 -12 -131 21 -119 39 -136 188 -166 101
-20 131 -13 131 34 0 37 -27 166 -40 190 -12 23 -48 37 -125 51 -33 5 -74 14
-90 18 -17 4 -40 6 -52 4z m141 -77 c44 -9 81 -17 83 -19 2 -2 10 -36 17 -75
12 -62 12 -73 0 -78 -16 -6 -164 25 -180 38 -7 5 -15 31 -19 57 -3 26 -9 57
-12 70 -6 27 2 28 111 7z"/>
<path d="M2720 843 c0 -5 10 -68 22 -140 22 -128 24 -133 47 -133 23 0 23 2
18 48 -3 26 -13 89 -23 140 -15 85 -18 92 -40 92 -13 0 -24 -3 -24 -7z"/>
<path d="M2472 821 c-104 -6 -121 -13 -122 -51 0 -28 30 -171 40 -190 17 -32
70 -42 189 -34 l111 7 0 28 0 28 -125 -6 -124 -6 -11 27 c-5 15 -13 52 -16 82
l-7 54 39 2 c22 1 48 3 59 4 11 1 48 2 83 3 l62 1 0 30 c0 34 20 32 -178 21z"/>
</g>
</svg>
